<svg width="32" height="32" viewBox="0 0 32 32" fill="none" xmlns="http://www.w3.org/2000/svg">
<path d="M16 0C12.8355 0 9.74207 0.938383 7.11088 2.69649C4.4797 4.45459 2.42894 6.95345 1.21793 9.87706C0.0069325 12.8007 -0.309921 16.0177 0.307443 19.1214C0.924806 22.2251 2.44866 25.0761 4.6863 27.3137C6.92394 29.5513 9.77486 31.0752 12.8786 31.6926C15.9823 32.3099 19.1993 31.9931 22.1229 30.7821C25.0466 29.5711 27.5454 27.5203 29.3035 24.8891C31.0616 22.2579 32 19.1645 32 16C32 11.7565 30.3143 7.68687 27.3137 4.68629C24.3131 1.68571 20.2435 0 16 0ZM17 29.95V27.53H15V29.95C11.646 29.7066 8.49167 28.2641 6.11379 25.8862C3.73592 23.5083 2.2934 20.354 2.05001 17H4.47001V15H2.05001C2.2934 11.646 3.73592 8.49166 6.11379 6.11379C8.49167 3.73591 11.646 2.29339 15 2.05V4.47H17V2.05C20.354 2.29339 23.5083 3.73591 25.8862 6.11379C28.2641 8.49166 29.7066 11.646 29.95 15H27.53V17H29.95C29.7066 20.354 28.2641 23.5083 25.8862 25.8862C23.5083 28.2641 20.354 29.7066 17 29.95Z" fill="#F8F8F8"/>
</svg>
