<svg width="40" height="36" viewBox="0 0 40 36" fill="none" xmlns="http://www.w3.org/2000/svg">
<path d="M36 4H29.66L27.18 1.3C26.8073 0.890787 26.3533 0.563814 25.8471 0.339972C25.3409 0.116131 24.7935 0.000340539 24.24 0H11.44C11.78 0.6 12 1.26 12 2C12 4.2 10.2 6 8 6H6V8C6 10.2 4.2 12 2 12C1.26 12 0.6 11.78 0 11.44V32C0 34.2 1.8 36 4 36H36C38.2 36 40 34.2 40 32V8C40 5.8 38.2 4 36 4ZM20 30C14.48 30 10 25.52 10 20C10 14.48 14.48 10 20 10C25.52 10 30 14.48 30 20C30 25.52 25.52 30 20 30Z" fill="#F8F8F8"/>
</svg>
